<svg width="97" height="31" viewBox="0 0 97 31" fill="none" xmlns="http://www.w3.org/2000/svg">
<path d="M34.2472 30.6007H35.7505V30.9208H33.8786V28.3408H35.702V28.6609H34.2472V30.6007ZM34.2181 29.4562H35.5469V29.7666H34.2181V29.4562Z" fill="#F9D2D8"/>
<path d="M38.1075 30.9497C37.9135 30.9497 37.7195 30.9206 37.545 30.8624C37.3607 30.8042 37.2249 30.7266 37.1182 30.6296L37.254 30.3386C37.351 30.4259 37.4771 30.4938 37.6322 30.552C37.7874 30.6102 37.9426 30.6393 38.1075 30.6393C38.253 30.6393 38.3791 30.6199 38.4761 30.5908C38.573 30.552 38.6409 30.5132 38.6797 30.4453C38.7282 30.3871 38.7476 30.3192 38.7476 30.2416C38.7476 30.1543 38.7185 30.0864 38.6603 30.0283C38.6021 29.9701 38.5245 29.9313 38.4373 29.8925C38.3403 29.8634 38.2433 29.8343 38.1366 29.8052C38.0299 29.7761 37.9135 29.747 37.8068 29.7179C37.7001 29.6888 37.5934 29.6403 37.4965 29.5918C37.3995 29.5433 37.3316 29.4754 37.2734 29.3881C37.2152 29.3008 37.1861 29.1844 37.1861 29.0487C37.1861 28.9129 37.2249 28.7965 37.2928 28.6801C37.3607 28.5637 37.4674 28.4764 37.6128 28.4085C37.7583 28.3406 37.9426 28.3115 38.1754 28.3115C38.3209 28.3115 38.4761 28.3309 38.6215 28.3697C38.767 28.4085 38.8931 28.4667 39.0095 28.5443L38.8834 28.8353C38.7767 28.7577 38.6603 28.7092 38.5342 28.6704C38.4082 28.6413 38.2918 28.6219 38.1754 28.6219C38.0299 28.6219 37.9135 28.6413 37.8165 28.6801C37.7195 28.7189 37.6516 28.7674 37.6128 28.8256C37.574 28.8838 37.545 28.9517 37.545 29.0293C37.545 29.1165 37.574 29.1941 37.6322 29.2426C37.6904 29.3008 37.768 29.3396 37.8553 29.3687C37.9523 29.3978 38.0493 29.4269 38.156 29.456C38.2627 29.4851 38.3791 29.5142 38.4858 29.5433C38.6021 29.5724 38.6991 29.6209 38.7961 29.6694C38.8931 29.7179 38.961 29.7858 39.0192 29.8731C39.0774 29.9604 39.1065 30.067 39.1065 30.2028C39.1065 30.3289 39.0677 30.455 38.9998 30.5617C38.9319 30.6781 38.8155 30.7654 38.67 30.8333C38.5149 30.9206 38.3306 30.9497 38.1075 30.9497Z" fill="#F9D2D8"/>
<path d="M41.1142 30.9208V28.6609H40.2316V28.3408H42.3654V28.6609H41.4828V30.9208H41.1142Z" fill="#F9D2D8"/>
<path d="M43.7621 30.9208V28.3408H44.8484C45.12 28.3408 45.3625 28.399 45.5759 28.5057C45.7892 28.6124 45.9541 28.7676 46.0705 28.9616C46.1869 29.1555 46.2451 29.3786 46.2451 29.6405C46.2451 29.8927 46.1869 30.1254 46.0705 30.3194C45.9541 30.5134 45.7892 30.6686 45.5759 30.7753C45.3625 30.882 45.12 30.9402 44.8484 30.9402H43.7621V30.9208ZM44.1307 30.6007H44.829C45.0424 30.6007 45.2267 30.5619 45.3819 30.4746C45.5371 30.397 45.6632 30.2806 45.7407 30.1351C45.828 29.9897 45.8668 29.8151 45.8668 29.6308C45.8668 29.4368 45.828 29.2622 45.7407 29.1167C45.6535 28.9713 45.5371 28.8549 45.3819 28.7773C45.2267 28.6997 45.0424 28.6512 44.829 28.6512H44.1307V30.6007Z" fill="#F9D2D8"/>
<path d="M47.7678 30.9497C47.6999 30.9497 47.6417 30.9303 47.5932 30.8818C47.5447 30.8333 47.5156 30.7751 47.5156 30.6975C47.5156 30.6199 47.5447 30.5617 47.5932 30.5132C47.6417 30.4647 47.6999 30.4453 47.7678 30.4453C47.8357 30.4453 47.8939 30.4647 47.9424 30.5132C47.9909 30.5617 48.0103 30.6199 48.0103 30.6975C48.0103 30.7751 47.9909 30.8333 47.9424 30.8818C47.8939 30.9206 47.8357 30.9497 47.7678 30.9497Z" fill="#F9D2D8"/>
<path d="M51.3079 30.9206V30.6684L52.3554 29.6501C52.4524 29.5628 52.5203 29.4852 52.5687 29.4173C52.6172 29.3494 52.6463 29.2912 52.6657 29.233C52.6851 29.1748 52.6851 29.1166 52.6851 29.0681C52.6851 28.9323 52.6366 28.8353 52.5493 28.7577C52.4524 28.6802 52.3166 28.6414 52.142 28.6414C52.0062 28.6414 51.8801 28.6608 51.7734 28.7092C51.6667 28.7577 51.5697 28.8256 51.4825 28.9226L51.2303 28.7092C51.3273 28.5832 51.4631 28.4862 51.6279 28.4183C51.7928 28.3504 51.9771 28.3213 52.1711 28.3213C52.3554 28.3213 52.5106 28.3504 52.6366 28.4086C52.7724 28.4668 52.8694 28.5541 52.947 28.6608C53.0149 28.7674 53.0537 28.8935 53.0537 29.0487C53.0537 29.136 53.044 29.2136 53.0246 29.2912C53.0052 29.3688 52.9567 29.4561 52.8985 29.5531C52.8403 29.6404 52.753 29.747 52.6366 29.8634L51.6958 30.7654L51.6085 30.62H53.1701V30.94H51.3079V30.9206Z" fill="#F9D2D8"/>
<path d="M55.5173 30.9497C55.3136 30.9497 55.139 30.9012 54.9741 30.7945C54.8189 30.6878 54.6929 30.5423 54.5959 30.3483C54.4989 30.1543 54.4601 29.9119 54.4601 29.6306C54.4601 29.3493 54.5086 29.1068 54.5959 28.9129C54.6929 28.7189 54.8092 28.5637 54.9741 28.4667C55.1293 28.36 55.3136 28.3115 55.5173 28.3115C55.721 28.3115 55.8955 28.36 56.0604 28.4667C56.2156 28.5734 56.3417 28.7189 56.4387 28.9129C56.526 29.1068 56.5745 29.3493 56.5745 29.6306C56.5745 29.9119 56.526 30.1543 56.4387 30.3483C56.3514 30.5423 56.2253 30.6975 56.0604 30.7945C55.8955 30.9012 55.7113 30.9497 55.5173 30.9497ZM55.5173 30.6199C55.6531 30.6199 55.7694 30.5811 55.8761 30.5132C55.9828 30.4356 56.0604 30.3289 56.1186 30.1834C56.1768 30.0379 56.2059 29.8537 56.2059 29.6306C56.2059 29.4075 56.1768 29.2329 56.1186 29.0777C56.0604 28.9323 55.9828 28.8159 55.8761 28.748C55.7694 28.6704 55.6531 28.6413 55.5173 28.6413C55.3815 28.6413 55.2651 28.6801 55.1584 28.748C55.0517 28.8256 54.9741 28.9323 54.9159 29.0777C54.8577 29.2232 54.8286 29.4075 54.8286 29.6306C54.8286 29.8537 54.8577 30.0282 54.9159 30.1834C54.9741 30.3289 55.0517 30.4453 55.1584 30.5132C55.2651 30.5908 55.3815 30.6199 55.5173 30.6199Z" fill="#F9D2D8"/>
<path d="M58.9702 30.9497C58.7665 30.9497 58.5919 30.9012 58.427 30.7945C58.2718 30.6878 58.1457 30.5423 58.0488 30.3483C57.9518 30.1543 57.913 29.9119 57.913 29.6306C57.913 29.3493 57.9615 29.1068 58.0488 28.9129C58.1457 28.7189 58.2621 28.5637 58.427 28.4667C58.5822 28.36 58.7665 28.3115 58.9702 28.3115C59.1738 28.3115 59.3484 28.36 59.5133 28.4667C59.6685 28.5734 59.7946 28.7189 59.8916 28.9129C59.9789 29.1068 60.0274 29.3493 60.0274 29.6306C60.0274 29.9119 59.9789 30.1543 59.8916 30.3483C59.8043 30.5423 59.6782 30.6975 59.5133 30.7945C59.3484 30.9012 59.1738 30.9497 58.9702 30.9497ZM58.9702 30.6199C59.1059 30.6199 59.2223 30.5811 59.329 30.5132C59.4357 30.4356 59.5133 30.3289 59.5715 30.1834C59.6297 30.0379 59.6588 29.8537 59.6588 29.6306C59.6588 29.4075 59.6297 29.2329 59.5715 29.0777C59.5133 28.9323 59.4357 28.8159 59.329 28.748C59.2223 28.6704 59.1059 28.6413 58.9702 28.6413C58.8344 28.6413 58.718 28.6801 58.6113 28.748C58.5046 28.8256 58.427 28.9323 58.3688 29.0777C58.3106 29.2232 58.2815 29.4075 58.2815 29.6306C58.2815 29.8537 58.3106 30.0282 58.3688 30.1834C58.427 30.3289 58.5046 30.4453 58.6113 30.5132C58.718 30.5908 58.8344 30.6199 58.9702 30.6199Z" fill="#F9D2D8"/>
<path d="M62.132 30.9498C61.9477 30.9498 61.7732 30.9207 61.5986 30.8625C61.424 30.8043 61.2882 30.7267 61.1815 30.6297L61.3464 30.3388C61.4337 30.4163 61.5404 30.4842 61.6859 30.5424C61.8217 30.5909 61.9671 30.62 62.132 30.62C62.326 30.62 62.4715 30.5812 62.5782 30.4939C62.6849 30.4163 62.7431 30.3 62.7431 30.1642C62.7431 30.0284 62.6946 29.9217 62.5879 29.8344C62.4812 29.7568 62.326 29.7083 62.1029 29.7083H61.8992V29.4464L62.6655 28.5056L62.714 28.6511H61.2979V28.3311H63.0049V28.5832L62.2387 29.524L62.0447 29.4076H62.1708C62.4812 29.4076 62.714 29.4755 62.8692 29.621C63.0243 29.7568 63.1019 29.9411 63.1019 30.1545C63.1019 30.3 63.0631 30.4357 62.9952 30.5521C62.9273 30.6685 62.8207 30.7655 62.6752 30.8334C62.5297 30.9207 62.3551 30.9498 62.132 30.9498Z" fill="#F9D2D8"/>
<path d="M6.87657 20.242C7.08995 20.8434 7.50701 21.1538 8.11805 21.1732C8.20534 21.1732 8.24413 21.2216 8.24413 21.2992C8.24413 21.3865 8.19564 21.4253 8.11805 21.4059C7.78828 21.3865 6.54681 21.3768 4.40332 21.3768C2.24044 21.3768 0.998968 21.3865 0.669201 21.4059C0.58191 21.4059 0.543114 21.3671 0.552813 21.2895C0.562512 21.2119 0.620706 21.1732 0.727396 21.1732C1.25114 21.1732 1.6294 20.9016 1.88158 20.3584C2.12405 19.8153 2.25014 18.9909 2.25014 17.8755V13.5109C2.25014 12.5313 2.14345 11.8621 1.92037 11.4838C1.707 11.1056 1.25114 10.9601 0.572211 11.028H0.533415C0.48492 11.028 0.446124 10.9989 0.446124 10.9407C0.436425 10.8825 0.465522 10.8437 0.533415 10.8243C1.54211 10.6109 2.59931 10.3006 3.71469 9.88349C4.82038 9.46644 5.75149 9.01058 6.49831 8.52563C6.605 8.45774 6.68259 8.41895 6.73109 8.41895C6.79898 8.41895 6.83778 8.48684 6.83778 8.63232C6.71169 9.8835 6.6341 10.8534 6.605 11.5323C6.56621 12.2113 6.55651 13.026 6.55651 13.9668V17.8852C6.54681 18.8551 6.6535 19.6407 6.87657 20.242Z" fill="#F9D2D8"/>
<path d="M37.0116 18.1855C37.0019 18.1467 36.9825 18.137 36.9437 18.137C36.8952 18.137 36.837 18.1661 36.7885 18.2146C36.4199 18.6705 36.0126 19.0197 35.5761 19.2621C35.13 19.5046 34.7032 19.6307 34.2764 19.6307C33.7236 19.6307 33.2677 19.4173 32.9186 18.9809C32.5694 18.5444 32.3948 17.9043 32.3948 17.0508V10.0481C32.3948 10.0384 32.3948 10.019 32.3948 10.0093C31.7353 10.2517 31.1922 10.7852 30.8042 11.2507C29.7567 12.5213 29.1651 14.112 28.5928 15.6444C28.4279 16.0906 28.2534 16.5464 28.0788 16.9926V17.8655C28.0788 18.719 28.2437 19.4464 28.5734 20.0478C28.9032 20.6491 29.3396 21.0952 29.8634 21.3959C30.3968 21.6966 30.9497 21.8421 31.5219 21.8421C32.4627 21.8421 33.355 21.5802 34.1892 21.0564C35.0233 20.5327 35.9447 19.6404 36.9631 18.3601C37.0116 18.2728 37.0213 18.2243 37.0116 18.1855ZM28.0788 15.722C28.7092 14.0441 29.3106 12.337 30.4647 10.9501C31.0661 10.2226 31.8614 9.56311 32.8022 9.42733C32.8604 9.41763 32.938 9.40793 33.0156 9.40793C33.0253 9.40793 33.035 9.40793 33.0447 9.40793C33.0738 9.40793 33.0932 9.40793 33.1223 9.40793H36.255C36.3811 9.40793 36.4393 9.35943 36.4393 9.25274C36.4393 9.20425 36.4296 9.17515 36.4102 9.17515H33.0738C32.8119 9.17515 32.6276 9.14605 32.5209 9.08786C32.4433 9.03937 32.3948 8.95207 32.3851 8.82599C32.3851 8.78719 32.3851 8.7387 32.3851 8.6902C32.453 7.38083 32.5015 6.39153 32.5112 5.7126C32.5112 5.58651 32.4821 5.52832 32.4336 5.52832C32.3657 5.52832 32.3075 5.58651 32.2784 5.7126C31.9681 6.56611 31.5122 7.23535 30.9303 7.7106C30.3483 8.19555 29.7179 8.52532 29.0487 8.7193C28.3794 8.91328 27.5647 9.08786 26.6045 9.24305C26.5172 9.26244 26.4687 9.29154 26.459 9.34973C26.4493 9.39823 26.4978 9.42733 26.6045 9.42733H27.5162C27.7587 9.42733 27.9139 9.49522 27.9721 9.62131C28.0303 9.74739 28.0691 9.95107 28.0691 10.2129V15.722H28.0788Z" fill="#F9D2D8"/>
<path d="M52.5202 15.9255C52.5978 15.9158 52.6366 15.974 52.6366 16.1001C52.6366 17.264 52.4427 18.2824 52.0644 19.1456C51.6764 20.0088 51.1818 20.6684 50.561 21.1242C49.9403 21.5801 49.2808 21.8031 48.5824 21.8031C47.952 21.8031 47.3895 21.5413 46.8948 21.0078C46.4002 20.4744 46.0316 19.7082 45.7794 18.6898L45.6533 18.166C45.149 19.5239 44.4604 20.4744 43.5874 21.0175C42.7145 21.5607 41.6767 21.8322 40.4741 21.8322C39.863 21.8322 39.2714 21.6965 38.7088 21.4249C38.1463 21.1533 37.6807 20.7363 37.3122 20.1737C36.9436 19.6112 36.7593 18.8934 36.7593 18.0399C36.7593 17.2737 36.9436 16.6239 37.3219 16.0904C37.7001 15.557 38.1366 15.1496 38.6506 14.849C39.1647 14.5483 39.8242 14.2282 40.6292 13.879C41.347 13.5493 41.861 13.2777 42.1714 13.0643C42.4818 12.851 42.6466 12.5988 42.6466 12.3078C42.6466 12.2011 42.6369 12.1235 42.6175 12.075C42.5981 12.0556 42.5884 12.0265 42.5884 11.9683C42.5884 11.9198 42.6175 11.8907 42.6757 11.8907C42.7339 11.8907 42.7824 11.9295 42.8212 11.9974C42.8697 12.172 42.8988 12.3369 42.8988 12.4921C42.8988 12.7928 42.8212 13.0643 42.666 13.3165C42.5109 13.5687 42.2781 13.85 41.9871 14.17C41.5701 14.655 41.25 15.1011 41.0366 15.4988C40.8232 15.8964 40.7068 16.4008 40.7068 16.9924C40.7068 17.8265 40.8911 18.5055 41.2694 19.0292C41.6476 19.553 42.1811 19.8148 42.8794 19.8148C44.538 19.8148 45.3624 19.0486 45.3624 17.5162C45.3624 17.3901 45.343 17.1573 45.3139 16.8082L44.2179 12.2302C43.9948 11.3282 43.6262 10.6978 43.1219 10.3486C42.6175 9.99944 41.958 9.82486 41.1627 9.82486C40.5905 9.82486 40.0085 9.94125 39.4363 10.1643C38.864 10.3874 38.3306 10.7075 37.8456 11.1051C37.7777 11.1536 37.7195 11.1536 37.671 11.1051C37.6226 11.0566 37.6323 10.9984 37.6807 10.9499C38.2239 10.271 38.9804 9.72787 39.9697 9.32051C40.959 8.91315 42.1035 8.70947 43.4129 8.70947C45.0132 8.70947 46.2353 9.01014 47.0694 9.62118C47.9035 10.2322 48.5048 11.2797 48.8734 12.754L50.1052 18.0884C50.2992 18.874 50.6386 19.262 51.1236 19.262C51.5115 19.262 51.8219 18.9419 52.0644 18.2921C52.3069 17.652 52.4233 16.9148 52.4039 16.1001C52.4039 15.9934 52.4427 15.9352 52.5202 15.9255Z" fill="#F9D2D8"/>
<path d="M53.4027 16.0419C53.4221 15.974 53.4512 15.9352 53.5094 15.9352C53.5579 15.9352 53.5967 15.9837 53.6161 16.0613C53.8295 17.5744 54.3241 18.8546 55.1194 19.9021C55.9148 20.9496 56.8459 21.4734 57.9322 21.4734C58.999 21.4734 59.5228 21.0854 59.5228 20.3192C59.5034 19.6597 59.193 19.0292 58.5917 18.4279C57.9903 17.8265 57.1271 17.1476 56.0117 16.4008C54.9352 15.654 54.1107 14.975 53.5579 14.364C52.9954 13.753 52.7238 13.0546 52.7238 12.269C52.7238 11.5901 52.976 10.979 53.4803 10.4359C53.9847 9.89275 54.6733 9.47569 55.5462 9.16532C56.4191 8.86466 57.389 8.70947 58.4753 8.70947C59.1542 8.70947 59.9011 8.77736 60.7061 8.92285C61.5208 9.05864 62.19 9.26232 62.7235 9.51449C63.2569 9.76666 63.48 10.0673 63.3927 10.4165L62.4228 14.0245C62.4034 14.073 62.3743 14.1021 62.3355 14.1021C62.287 14.1021 62.2676 14.0633 62.2676 13.9954C62.0542 12.4436 61.5305 11.2409 60.677 10.3777C59.8235 9.51449 58.8439 9.08773 57.7479 9.08773C57.2629 9.08773 56.9235 9.16533 56.7295 9.32051C56.5355 9.47569 56.4385 9.70847 56.4385 9.99944C56.4385 10.4553 56.7101 10.9111 57.2532 11.3767C57.7964 11.8423 58.7275 12.4921 60.0465 13.3553C61.1231 14.0342 61.996 14.7423 62.6653 15.4697C63.3248 16.1971 63.6546 17.0603 63.6546 18.0302C63.6546 19.1941 63.092 20.1252 61.9572 20.8041C60.8225 21.4831 59.3385 21.8225 57.5151 21.8225C56.7101 21.8225 55.8954 21.7256 55.0709 21.5316C54.2465 21.3376 53.5773 21.0854 53.0826 20.7557C52.588 20.4356 52.3843 20.0864 52.4716 19.7276L53.4027 16.0419Z" fill="#F9D2D8"/>
<path d="M89.0856 9.14628C88.7073 9.18507 88.2999 9.19477 87.8829 9.19477H87.5434C86.7578 9.19477 86.0401 9.17537 85.3708 9.14628C85.2447 9.14628 85.1866 9.18507 85.1866 9.25296C85.1866 9.34026 85.2447 9.38875 85.3708 9.38875C86.4862 9.38875 87.0488 9.83491 87.0488 10.7175C87.0488 11.1928 86.9033 11.7747 86.6026 12.473L84.0906 18.5252C84.0421 18.6319 83.9742 18.6804 83.9063 18.6804C83.8384 18.6804 83.7802 18.6222 83.722 18.4961L81.21 12.4536C80.8996 11.6874 80.7347 11.0861 80.7347 10.6496C80.7347 9.79611 81.2584 9.36935 82.3059 9.36935C82.432 9.36935 82.4902 9.33056 82.4902 9.23357C82.4902 9.16567 82.432 9.12688 82.3059 9.12688C81.6755 9.16567 80.9966 9.17537 80.2691 9.17537H75.5651C75.1481 9.17537 74.7407 9.14628 74.3237 9.14628H74.314H70.929C70.6671 9.14628 70.4828 9.11718 70.3762 9.05898C70.2695 9.00079 70.2307 8.86501 70.2501 8.65163C70.318 7.34226 70.3665 6.35296 70.3762 5.67403C70.3762 5.54794 70.3471 5.48975 70.2986 5.48975C70.2307 5.48975 70.1725 5.54794 70.1434 5.67403C69.833 6.52754 69.3772 7.19677 68.7952 7.67203C68.2133 8.15698 67.5828 8.48674 66.9136 8.68072C66.2444 8.8747 65.4297 9.04928 64.4695 9.20447C64.3822 9.22387 64.3337 9.25296 64.324 9.31116C64.3143 9.35965 64.3628 9.38875 64.4695 9.38875H65.3812C65.6236 9.38875 65.7788 9.45665 65.837 9.58273C65.8952 9.70882 65.9243 9.9125 65.9243 10.1744V17.8366C65.9243 18.6901 66.0892 19.4175 66.419 20.0189C66.7487 20.6202 67.1852 21.0664 67.7089 21.367C68.2327 21.6677 68.7952 21.8132 69.3675 21.8132C70.3083 21.8132 71.2006 21.5513 72.0347 21.0276C72.8688 20.5038 73.7999 19.6115 74.8086 18.3312C74.8474 18.2634 74.8571 18.2052 74.8474 18.1761C74.8377 18.1373 74.8183 18.1276 74.7795 18.1276C74.731 18.1276 74.6728 18.1567 74.6243 18.2052C74.2558 18.661 73.8484 19.0102 73.4119 19.2527C72.9658 19.4951 72.539 19.6212 72.122 19.6212C71.5594 19.6212 71.1133 19.4078 70.7641 18.9714C70.4149 18.5349 70.2404 17.8948 70.2404 17.0413V10.0386C70.2404 9.79611 70.2889 9.63123 70.3859 9.54393C70.4828 9.45664 70.6768 9.41785 70.9775 9.41785H74.3043C74.7019 9.41785 75.0802 9.59243 75.3226 9.9028C75.3517 9.9416 75.3808 9.98039 75.4099 10.0192C75.7009 10.4362 76.0986 11.2607 76.6029 12.473L80.1334 20.9403C80.4631 21.7259 80.7347 22.4145 80.9578 23.0062C81.1712 23.5978 81.2778 24.044 81.2584 24.3446C81.0451 24.9169 80.8026 25.3533 80.531 25.6346C80.2498 25.9256 79.92 26.0711 79.532 26.0711C78.9598 26.0711 78.3972 25.7704 77.8541 25.1691C77.311 24.5677 76.8745 23.8694 76.5447 23.0935C76.215 22.3078 76.0792 21.7162 76.1277 21.3185C76.1471 21.1828 76.1277 21.1052 76.0792 21.1052C75.9725 21.1052 75.7591 21.367 75.439 21.8908C75.119 22.4145 74.828 22.9771 74.5661 23.5784C74.3043 24.1798 74.1782 24.6259 74.1782 24.9266C74.1976 25.2563 74.3915 25.5861 74.7795 25.9062C75.1578 26.2262 75.6427 26.4881 76.2053 26.6821C76.7678 26.8761 77.34 26.9731 77.9123 26.9731C78.7367 26.9731 79.4253 26.7791 80.0073 26.4008C80.5795 26.0129 81.0936 25.46 81.5397 24.7229C81.9859 23.9955 82.4805 22.9771 83.0431 21.6871L86.8645 12.4827C87.3494 11.2801 87.7374 10.4653 88.0284 10.0386C88.3193 9.61183 88.6685 9.39845 89.0856 9.39845C89.1535 9.39845 89.1922 9.35965 89.1922 9.28206C89.1922 9.17537 89.1535 9.14628 89.0856 9.14628Z" fill="#F9D2D8"/>
<path d="M90.7828 6.95398C90.7052 6.54662 90.5889 6.29445 90.4337 6.19746C90.2785 6.10047 90.0554 6.07137 89.7838 6.11017H89.7353C89.6287 6.11017 89.5705 6.07137 89.5511 6.00348C89.5317 5.93558 89.5317 5.88709 89.5511 5.87739C92.0825 5.19846 94.0417 4.24796 95.4384 3.02588H95.4869C95.642 3.02588 95.7002 3.11317 95.6711 3.28775C95.5354 4.26735 95.4384 5.18876 95.3802 6.07137C95.3317 6.95398 95.3026 7.97238 95.3026 9.14596V17.8751C95.3026 18.8547 95.4093 19.6403 95.6323 20.2416C95.8457 20.843 96.2628 21.1533 96.8738 21.1727C96.9611 21.1727 96.9999 21.2212 96.9999 21.2988C96.9999 21.3861 96.9514 21.4249 96.8738 21.4055C96.5441 21.3861 95.3026 21.3764 93.1591 21.3764C90.9962 21.3764 89.7547 21.3861 89.425 21.4055C89.3377 21.4055 89.2989 21.3667 89.3086 21.2891C89.3183 21.2115 89.3765 21.1727 89.4832 21.1727C90.0069 21.1727 90.3852 20.9012 90.6374 20.358C90.8798 19.8149 91.0059 18.9905 91.0059 17.8751L90.9283 8.93258C90.8992 8.03057 90.8604 7.37104 90.7828 6.95398Z" fill="#F9D2D8"/>
<path d="M7.58463 3.9863C7.14818 3.9475 6.70202 3.9475 6.28496 3.76322C5.9067 3.59834 5.80971 3.35586 5.9649 2.9776C6.07159 2.72543 6.16858 2.55084 6.36256 2.27927C6.39165 2.23077 6.44015 2.18228 6.39165 2.12409C6.33346 2.05619 6.28496 2.12409 6.24617 2.15318C6.07159 2.28897 5.87761 2.40536 5.67393 2.49265C5.12108 2.74482 4.84951 2.62843 4.68463 2.03679C4.52944 1.44515 4.49065 0.843815 4.43245 0.242475C4.43245 0.19398 4.43245 0.145486 4.42275 0.0872921C4.42275 0.0290979 4.37426 0 4.32576 0C4.27727 0 4.23847 0.0290979 4.22877 0.0872921C4.22877 0.135787 4.22877 0.19398 4.21907 0.242475C4.17058 0.843815 4.13178 1.45485 3.9669 2.03679C3.81171 2.61873 3.53044 2.74482 2.9776 2.49265C2.77392 2.39566 2.57994 2.28897 2.40536 2.15318C2.36656 2.12409 2.31807 2.05619 2.25987 2.12409C2.21138 2.18228 2.25987 2.23077 2.28897 2.27927C2.48295 2.55084 2.57994 2.72543 2.68663 2.9776C2.84181 3.35586 2.74482 3.59834 2.36656 3.76322C1.9495 3.9475 1.50335 3.9475 1.06689 3.9863C0.669232 4.02509 0 4.08329 0 4.22877C0 4.36456 0.669232 4.43245 1.10569 4.47125C1.54214 4.51004 1.9883 4.51004 2.40536 4.69432C2.78362 4.85921 2.88061 5.10168 2.72542 5.47995C2.61874 5.73212 2.52174 5.9067 2.32776 6.17828C2.29867 6.22677 2.25017 6.27527 2.29867 6.33346C2.35686 6.40135 2.40536 6.33346 2.44415 6.30436C2.61874 6.16858 2.81272 6.05219 3.01639 5.9649C3.56924 5.71272 3.84081 5.82911 4.00569 6.42075C4.16088 7.01239 4.19968 7.61373 4.25787 8.21507C4.25787 8.26357 4.25787 8.31206 4.26757 8.37025C4.26757 8.42845 4.31606 8.45755 4.36456 8.45755C4.41305 8.45755 4.45185 8.42845 4.46155 8.37025C4.46155 8.32176 4.46155 8.26357 4.47125 8.21507C4.51974 7.61373 4.55854 7.00269 4.72342 6.42075C4.87861 5.83881 5.15988 5.71272 5.71272 5.9649C5.9164 6.06189 6.11038 6.16858 6.28496 6.30436C6.32376 6.33346 6.37226 6.40135 6.43045 6.33346C6.47895 6.27527 6.43045 6.22677 6.40135 6.17828C6.20737 5.9067 6.11038 5.73212 6.00369 5.47995C5.84851 5.10168 5.9455 4.85921 6.32376 4.69432C6.74082 4.51004 7.18697 4.51004 7.62343 4.47125C8.05989 4.43245 8.72912 4.37426 8.72912 4.22877C8.69032 4.08329 8.02109 4.02509 7.58463 3.9863Z" fill="#F9D2D8"/>
<path d="M8.63217 10.9309C8.64187 10.9891 8.67097 11.0181 8.71946 11.0181H8.74856C9.42749 10.9503 9.87365 11.1054 10.0967 11.474C10.3101 11.8523 10.4265 12.5215 10.4265 13.5011V18.4379C10.4265 19.2914 10.378 19.9121 10.281 20.2904C10.184 20.6687 10.0385 20.9111 9.83485 21.0081C9.63117 21.1051 9.3208 21.1536 8.88435 21.1536C8.77766 21.1536 8.72916 21.1924 8.72916 21.27C8.72916 21.3476 8.76796 21.3864 8.85525 21.3864C9.86395 21.3476 11.2606 21.3379 13.0355 21.3379C14.4128 21.3379 15.4991 21.3573 16.3041 21.3864C16.3914 21.3864 16.4302 21.3476 16.4302 21.27C16.4302 21.1924 16.3914 21.1536 16.3041 21.1536C15.664 21.1342 15.2372 20.9402 15.0335 20.562C14.8298 20.1837 14.7329 19.4854 14.7329 18.4573V13.6466C14.8395 12.6185 15.0723 11.7941 15.4506 11.1636C15.8288 10.5332 16.3138 10.2228 16.9248 10.2228C17.3807 10.2228 17.7008 10.3392 17.9044 10.572C18.1081 10.8048 18.273 11.2024 18.4185 11.765L20.1158 18.6707C20.3583 19.6988 20.7268 20.4747 21.2118 20.9984C21.6967 21.5222 22.269 21.7841 22.9091 21.7841C23.5881 21.7841 24.2476 21.561 24.8683 21.1051C25.4309 20.7366 25.8479 20.1643 26.2165 19.6018C26.556 19.078 26.8566 18.5252 27.1282 17.9529C27.4774 17.2158 27.778 16.469 28.069 15.7125C28.6994 14.0345 29.3008 12.3275 30.455 10.9406C31.0563 10.2131 31.8516 9.5536 32.7924 9.41781C32.8603 9.40811 32.9379 9.39841 33.0058 9.39841C33.0155 9.39841 33.0252 9.39841 33.0349 9.39841C33.0737 9.39841 33.1028 9.39841 33.1416 9.39841V9.16564C31.968 9.15594 30.969 9.92216 30.261 10.7854C29.2135 12.0171 28.6315 13.5108 28.069 15.0044C27.7392 15.8774 27.4192 16.7503 27.0118 17.5844C26.8566 17.9142 26.682 18.2439 26.4687 18.5349C26.265 18.8065 25.974 19.1265 25.6345 19.2235C25.3339 19.3108 25.0138 19.2041 24.8198 18.9519C24.6646 18.7483 24.5289 18.4573 24.4319 18.079L22.8412 11.6486C22.5988 10.669 22.1817 9.93186 21.5901 9.43721C20.9984 8.94256 20.1546 8.69038 19.0489 8.69038C18.0014 8.69038 17.0994 8.99105 16.3429 9.59239C15.5864 10.1937 15.0529 10.9406 14.762 11.8329C14.8104 11.0957 14.8977 10.0289 15.0238 8.61279C15.0238 8.47701 14.985 8.39941 14.9171 8.39941C14.8686 8.39941 14.791 8.43821 14.6844 8.5061C13.9375 8.99105 13.0064 9.44691 11.9007 9.86397C10.7951 10.281 9.73786 10.6011 8.72916 10.8048C8.65157 10.8339 8.62247 10.8727 8.63217 10.9309Z" fill="#F9D2D8"/>
</svg>
